<svg xmlns="http://www.w3.org/2000/svg" width="95.464" height="29.43" viewBox="0 0 95.464 29.43"><path d="M-36.842-21.6h-10.59l2.67,1.62V-.48h-2.4V0h9.93c7.92,0,12.87-3.96,12.87-11.07C-24.362-17.91-28.952-21.6-36.842-21.6Zm-.84,21.12h-.48V-21.12h.75c3.93,0,6.15,3.51,6.15,10.08C-31.262-4.38-33.812-.48-37.682-.48Zm28.111,0V-8.79c0-4.35-2.01-6.51-5.79-6.51a9.236,9.236,0,0,0-7.26,3.51l.15.15a4.966,4.966,0,0,1,3.3-1.14c2.28,0,3.6,1.65,3.6,4.95-4.98.54-7.92,2.37-7.92,5.13,0,1.89,1.32,3,3.27,3a7.363,7.363,0,0,0,4.65-2.01V0h7.5V-.48Zm-6.69-1.56c-1.2,0-1.8-.75-1.8-2.16a3.056,3.056,0,0,1,2.49-3.24v5.31A3.345,3.345,0,0,1-16.261-2.04ZM9.96-.48V-10.8c0-3.06-1.32-4.65-3.87-4.65-2.04,0-3.78,1.17-5.73,2.85v-3l-7.71,2.7,1.71,1.47V-.48h-1.5V0h8.7V-.48H.36v-11.7a4.427,4.427,0,0,1,1.8-.45c1.23,0,1.8.78,1.8,3.12V-.48H2.76V0h8.7V-.48Zm19.531,0V-10.8c0-3.06-1.32-4.65-3.87-4.65-2.04,0-3.78,1.17-5.73,2.85v-3l-7.71,2.7,1.71,1.47V-.48h-1.5V0h8.7V-.48h-1.2v-11.7a4.427,4.427,0,0,1,1.8-.45c1.23,0,1.8.78,1.8,3.12V-.48h-1.2V0h8.7V-.48ZM42.212-14.7l2.31,1.47L41.7-5.34l-3.33-7.89,2.01-1.47H29.852l2.04,1.47L38.972-.15l-8.73,3.99,5.7,3.99L39.512,0l6.51-13.23,2.01-1.47Z" transform="translate(47.432 21.6)"></path></svg>